<?xml version="1.0" encoding="utf-8"?>
<!-- Generator: Adobe Illustrator 26.0.1, SVG Export Plug-In . SVG Version: 6.00 Build 0)  -->
<svg version="1.1" id="Ebene_1" xmlns="http://www.w3.org/2000/svg" xmlns:xlink="http://www.w3.org/1999/xlink" x="0px" y="0px"
	 width="275px" height="300px" viewBox="0 0 275 300" style="enable-background:new 0 0 275 300;" xml:space="preserve">
<style type="text/css">
	.st0{fill:#FFFFFF;}
	.st1{fill:none;}
	.st2{fill:#FF8647;}
</style>
<g>
	<g>
		<path class="st0" d="M22.67,164.87c0.2-1.12,0.52-2.09,0.97-2.9l3.5,1.65c-0.28,0.45-0.48,1-0.6,1.65
			c-0.12,0.65-0.09,1.27,0.08,1.86c0.17,0.57,0.42,1.06,0.78,1.49c0.35,0.42,0.83,0.75,1.43,0.97c0.6,0.22,1.33,0.33,2.18,0.32
			c0.85-0.01,1.88-0.16,3.07-0.47c-0.41-0.15-0.8-0.36-1.16-0.62c-0.36-0.26-0.68-0.54-0.96-0.85c-0.28-0.31-0.53-0.62-0.72-0.95
			c-0.2-0.33-0.34-0.65-0.44-0.97c-0.25-0.86-0.36-1.69-0.31-2.49c0.04-0.8,0.24-1.53,0.59-2.21c0.35-0.67,0.87-1.28,1.56-1.81
			c0.69-0.53,1.56-0.95,2.61-1.26c1.03-0.3,2.01-0.39,2.95-0.28c0.94,0.11,1.78,0.39,2.55,0.81c0.76,0.43,1.42,1,1.95,1.72
			c0.54,0.72,0.95,1.53,1.21,2.44c0.28,0.97,0.37,1.97,0.26,2.99c-0.11,1.03-0.47,2.01-1.06,2.95c-0.6,0.94-1.45,1.81-2.58,2.6
			c-1.12,0.8-2.57,1.45-4.34,1.97c-1.87,0.55-3.56,0.79-5.06,0.74c-1.5-0.05-2.8-0.33-3.9-0.81c-1.1-0.49-2.01-1.16-2.73-2.02
			c-0.72-0.85-1.23-1.81-1.53-2.86C22.56,167.21,22.47,165.99,22.67,164.87z M35.25,167.47c0.46,0.45,1.11,0.77,1.94,0.96
			c1.52-0.67,2.49-1.38,2.92-2.14c0.43-0.75,0.54-1.49,0.33-2.2c-0.19-0.67-0.63-1.19-1.29-1.54c-0.67-0.36-1.56-0.37-2.7-0.04
			c-1.07,0.31-1.75,0.78-2.03,1.42c-0.29,0.63-0.32,1.32-0.1,2.08C34.48,166.54,34.79,167.02,35.25,167.47z"/>
		<path class="st0" d="M30.63,187.12c0-1.03,0.27-2.05,0.8-3.04c0.53-0.99,1.31-1.96,2.36-2.9c1.05-0.94,2.36-1.81,3.95-2.61
			c1.59-0.81,3.05-1.35,4.41-1.63c1.36-0.28,2.59-0.34,3.69-0.18c1.1,0.17,2.06,0.56,2.88,1.17c0.82,0.62,1.48,1.43,1.99,2.42
			c0.5,1,0.77,2.01,0.78,3.03c0.01,1.03-0.23,2.03-0.75,3.02c-0.52,0.99-1.29,1.95-2.32,2.88c-1.03,0.93-2.34,1.79-3.92,2.6
			c-1.58,0.81-3.06,1.35-4.44,1.65s-2.62,0.36-3.73,0.2c-1.11-0.16-2.09-0.54-2.93-1.15c-0.84-0.61-1.51-1.41-2.02-2.41
			C30.88,189.17,30.62,188.16,30.63,187.12z M35.53,189.36c0.34,0.22,0.82,0.32,1.43,0.31c0.61-0.02,1.36-0.17,2.24-0.46
			c0.89-0.29,1.97-0.76,3.24-1.4c1.27-0.64,2.28-1.24,3.03-1.78s1.29-1.04,1.63-1.51c0.34-0.47,0.52-0.9,0.53-1.31
			c0.02-0.4-0.07-0.79-0.26-1.16c-0.18-0.35-0.44-0.64-0.77-0.86c-0.34-0.22-0.79-0.33-1.37-0.34c-0.58,0-1.31,0.14-2.19,0.41
			c-0.88,0.28-1.96,0.73-3.23,1.38c-1.27,0.65-2.28,1.25-3.03,1.8c-0.75,0.56-1.31,1.07-1.68,1.56c-0.37,0.48-0.57,0.93-0.59,1.34
			c-0.03,0.41,0.05,0.78,0.23,1.14C34.91,188.84,35.18,189.14,35.53,189.36z"/>
		<path class="st0" d="M41.86,205.98c-0.19-1.02-0.11-2.06,0.22-3.14c0.33-1.07,0.93-2.17,1.79-3.28c0.86-1.11,1.99-2.21,3.4-3.3
			c1.41-1.08,2.75-1.89,4.03-2.41c1.28-0.53,2.48-0.81,3.59-0.85c1.11-0.04,2.13,0.17,3.05,0.62c0.92,0.46,1.72,1.13,2.4,2.01
			c0.68,0.89,1.12,1.83,1.33,2.84c0.2,1,0.14,2.04-0.19,3.11c-0.33,1.07-0.91,2.15-1.75,3.25c-0.84,1.1-1.96,2.19-3.37,3.28
			c-1.41,1.08-2.76,1.89-4.06,2.43c-1.3,0.54-2.51,0.83-3.63,0.88c-1.13,0.05-2.15-0.15-3.09-0.59c-0.93-0.44-1.74-1.11-2.42-2
			C42.48,207.95,42.04,206.99,41.86,205.98z M47.08,207.27c0.38,0.15,0.87,0.16,1.46,0.04c0.6-0.13,1.3-0.41,2.12-0.86
			c0.82-0.45,1.79-1.11,2.92-1.97c1.13-0.87,2.01-1.64,2.65-2.31c0.64-0.67,1.08-1.26,1.32-1.78c0.25-0.52,0.34-0.98,0.29-1.38
			c-0.06-0.4-0.21-0.76-0.47-1.09c-0.24-0.31-0.55-0.55-0.92-0.71c-0.37-0.16-0.84-0.18-1.41-0.08c-0.57,0.11-1.26,0.38-2.08,0.81
			c-0.82,0.43-1.79,1.08-2.92,1.95c-1.13,0.87-2.01,1.64-2.65,2.33c-0.64,0.68-1.09,1.29-1.37,1.84c-0.27,0.54-0.39,1.02-0.34,1.42
			c0.05,0.41,0.19,0.76,0.43,1.08C46.38,206.88,46.7,207.12,47.08,207.27z"/>
		<path class="st0" d="M56.26,217.5l3.38,3.03l8.05-8.99l-2.91-2.61l2-2.23c1,0.6,1.89,1.04,2.68,1.34c0.79,0.3,1.61,0.53,2.46,0.7
			l2.64,2.37l-11.32,12.64l2.91,2.61l-2.61,2.92l-9.89-8.86L56.26,217.5z"/>
		<path class="st0" d="M208.87,227.91c0.17-1.82,0.31-3.51,0.41-5.06s0.14-2.94,0.11-4.19c-0.04-1.24-0.16-2.32-0.37-3.24
			c-0.21-0.91-0.56-1.65-1.06-2.21c-0.68-0.77-1.4-1.18-2.15-1.23c-0.75-0.05-1.47,0.23-2.16,0.84c-0.57,0.51-0.94,1.12-1.1,1.84
			c-0.16,0.71-0.25,1.46-0.26,2.23l-3.69-0.19c0.04-1.5,0.28-2.82,0.71-3.95c0.43-1.13,1.21-2.2,2.32-3.19
			c0.77-0.69,1.58-1.19,2.42-1.51c0.84-0.32,1.68-0.47,2.53-0.44c0.85,0.03,1.66,0.23,2.45,0.62c0.79,0.39,1.51,0.96,2.18,1.71
			c0.58,0.66,1.04,1.45,1.36,2.37c0.33,0.93,0.56,1.94,0.7,3.03c0.14,1.1,0.21,2.25,0.22,3.46c0,1.21-0.02,2.43-0.07,3.65
			c0.35-0.4,0.75-0.83,1.19-1.31c0.45-0.47,0.86-0.87,1.24-1.21l3.14-2.8l2.71,3.05l-10.99,9.77L208.87,227.91z"/>
		<path class="st0" d="M229.22,211.15c-0.94,0.44-1.97,0.63-3.09,0.58c-1.12-0.05-2.34-0.35-3.63-0.9
			c-1.29-0.55-2.64-1.36-4.05-2.45c-1.4-1.09-2.52-2.18-3.36-3.29c-0.83-1.11-1.41-2.19-1.74-3.26c-0.32-1.07-0.38-2.11-0.17-3.11
			c0.21-1,0.66-1.95,1.34-2.83c0.69-0.89,1.49-1.55,2.41-2c0.92-0.45,1.94-0.66,3.05-0.61c1.11,0.05,2.31,0.34,3.59,0.87
			c1.28,0.53,2.62,1.34,4.02,2.43c1.4,1.09,2.53,2.19,3.39,3.31c0.85,1.12,1.45,2.22,1.78,3.29c0.33,1.08,0.4,2.12,0.21,3.14
			c-0.19,1.02-0.63,1.97-1.31,2.85C230.96,210.05,230.15,210.71,229.22,211.15z M229.14,205.76c0.05-0.4-0.06-0.88-0.33-1.42
			c-0.27-0.54-0.73-1.15-1.37-1.83c-0.64-0.68-1.53-1.45-2.65-2.32c-1.13-0.87-2.09-1.53-2.9-1.98c-0.81-0.45-1.5-0.72-2.06-0.83
			c-0.57-0.11-1.04-0.08-1.41,0.07c-0.37,0.16-0.68,0.4-0.94,0.73c-0.24,0.31-0.39,0.67-0.45,1.06c-0.06,0.4,0.03,0.86,0.28,1.38
			c0.25,0.52,0.68,1.12,1.31,1.8c0.63,0.68,1.5,1.45,2.63,2.33c1.12,0.87,2.1,1.53,2.92,1.97c0.82,0.44,1.53,0.73,2.12,0.86
			c0.6,0.13,1.08,0.12,1.46-0.03c0.38-0.15,0.69-0.38,0.93-0.69C228.94,206.53,229.09,206.17,229.14,205.76z"/>
		<path class="st0" d="M236.72,194.29l2.07-4.04l-10.74-5.5l-1.78,3.48l-2.66-1.36c0.32-1.11,0.53-2.09,0.61-2.94
			c0.09-0.84,0.11-1.7,0.06-2.56l1.62-3.16l15.11,7.74l1.78-3.48l3.48,1.78l-6.06,11.83L236.72,194.29z"/>
		<path class="st0" d="M249.47,174.59c-0.87,0.98-1.83,1.75-2.86,2.31l-2.32-2.95c0.72-0.45,1.39-0.97,1.99-1.56
			c0.6-0.59,1.02-1.31,1.28-2.18c0.31-1.03,0.28-1.93-0.06-2.7c-0.35-0.76-1.03-1.3-2.06-1.61c-1.01-0.3-1.86-0.24-2.56,0.19
			c-0.7,0.42-1.19,1.11-1.47,2.05c-0.09,0.29-0.15,0.56-0.19,0.8c-0.04,0.24-0.05,0.48-0.03,0.73s0.06,0.51,0.11,0.79
			c0.06,0.28,0.13,0.59,0.23,0.95l-1.94,1.69l-9.96-3.57l3.36-11.36l3.91,1.16l-2.18,7.35l3.65,1.46c-0.06-0.43-0.07-0.83-0.04-1.2
			c0.03-0.37,0.11-0.76,0.23-1.18c0.25-0.86,0.62-1.64,1.1-2.33c0.48-0.69,1.06-1.26,1.74-1.7s1.46-0.71,2.34-0.82
			c0.88-0.11,1.85,0,2.92,0.32c1.11,0.33,2.04,0.82,2.79,1.48c0.75,0.66,1.32,1.41,1.72,2.26c0.4,0.85,0.63,1.77,0.68,2.76
			c0.05,0.99-0.07,1.97-0.35,2.93C251.02,172.3,250.34,173.61,249.47,174.59z"/>
	</g>
	<g>
		<path class="st1" d="M137.5,7.28c-35.62,0-67.84,14.43-91.18,37.77C22.97,68.4,8.55,100.62,8.55,136.24
			c0,35.62,14.43,67.84,37.77,91.18c11.98,11.98,26.3,21.58,42.21,28.12v-51.26c-21.12-15.22-34.88-40.02-34.88-68.04
			c0-46.31,37.54-83.85,83.85-83.85c46.31,0,83.85,37.54,83.85,83.85c0,28.15-13.88,53.03-35.16,68.24v51.17
			c16.02-6.54,30.45-16.18,42.49-28.23c23.34-23.35,37.77-55.56,37.77-91.18c0-35.62-14.43-67.84-37.77-91.19
			C205.34,21.71,173.12,7.28,137.5,7.28z"/>
		<path class="st0" d="M137.5,0.24c-75.11,0-136,60.89-136,136c0,57.84,36.13,107.21,87.03,126.88v36.65l48.83-24.42l48.83,24.42
			v-36.54c51.05-19.59,87.31-69.04,87.31-126.98C273.5,61.12,212.61,0.24,137.5,0.24z M179.14,265.71v22.65l-32.88-16.44l-8.91-4.45
			l-8.87,4.43l-32.91,16.46v-22.74v-7.44v-49.34c12.34,7.14,26.64,11.24,41.92,11.24c15.16,0,29.37-4.05,41.64-11.08l0,49.28V265.71
			z M175.64,202.89c-11.24,6.45-24.24,10.15-38.14,10.15c-13.89,0-26.9-3.7-38.14-10.15c-5.93-3.4-11.37-7.55-16.17-12.35
			c-13.9-13.91-22.49-33.09-22.49-54.31c0-21.22,8.59-40.4,22.49-54.31c13.91-13.9,33.09-22.49,54.31-22.5
			c21.22,0,40.4,8.59,54.31,22.5c13.9,13.91,22.49,33.09,22.5,54.31c0,21.22-8.59,40.4-22.5,54.31
			C187,195.34,181.56,199.49,175.64,202.89z M228.68,227.42c-12.05,12.05-26.47,21.69-42.49,28.23v-51.17
			c21.28-15.21,35.16-40.09,35.16-68.24c0-46.31-37.54-83.85-83.85-83.85c-46.31,0-83.85,37.54-83.85,83.85
			c0,28.02,13.76,52.82,34.88,68.04v51.26C72.62,249,58.29,239.4,46.32,227.42c-23.34-23.35-37.77-55.56-37.77-91.18
			c0-35.62,14.43-67.84,37.77-91.19C69.66,21.71,101.88,7.28,137.5,7.28c35.62,0,67.84,14.43,91.18,37.77
			c23.34,23.35,37.77,55.56,37.77,91.19C266.45,171.86,252.03,204.07,228.68,227.42z"/>
	</g>
	<circle class="st0" cx="244.05" cy="136.24" r="5.21"/>
	<circle class="st0" cx="30.95" cy="136.24" r="5.21"/>
	<g>
		<path class="st0" d="M46.04,107.78c-0.83,1-1.82,1.78-2.98,2.35c-1.16,0.57-2.48,0.89-3.94,0.96c-1.46,0.07-3.05-0.18-4.76-0.75
			c-1.69-0.56-3.1-1.32-4.25-2.28c-1.15-0.96-2.03-2.03-2.66-3.2c-0.62-1.18-0.98-2.43-1.07-3.75c-0.09-1.32,0.08-2.63,0.51-3.92
			c0.44-1.31,1.09-2.39,1.97-3.26c0.88-0.86,1.78-1.52,2.72-1.97l2.12,3.41c-0.65,0.36-1.22,0.78-1.71,1.25
			c-0.49,0.47-0.86,1.07-1.1,1.8c-0.23,0.69-0.29,1.39-0.19,2.1c0.1,0.71,0.35,1.39,0.77,2.02c0.41,0.64,0.98,1.22,1.7,1.75
			s1.6,0.96,2.61,1.3c2.1,0.7,3.88,0.79,5.33,0.28c1.45-0.51,2.43-1.51,2.93-3.01c0.28-0.83,0.34-1.64,0.19-2.41
			c-0.15-0.78-0.41-1.5-0.78-2.18l3.68-1.48c1.43,2.37,1.7,4.9,0.8,7.58C47.49,105.64,46.87,106.78,46.04,107.78z"/>
		<path class="st0" d="M32.76,83.92l6.66-11.65l3.54,2.02l-4.26,7.45l3.74,2.14l3.62-6.34l3.51,2.01l-3.62,6.34l4.28,2.45l4.42-7.74
			l3.54,2.03l-6.82,11.93L32.76,83.92z"/>
		<path class="st0" d="M44.7,64.78l5.1-5.8c0.75-0.86,1.54-1.59,2.36-2.19c0.82-0.61,1.67-1.02,2.55-1.24
			c0.88-0.22,1.78-0.21,2.72,0.02c0.93,0.24,1.87,0.78,2.83,1.61c1.19,1.04,1.93,2.16,2.24,3.35c0.31,1.19,0.27,2.39-0.12,3.6
			l9.66,2.01l-3.59,4.07l-8.52-2.01l-1.76,2l5.8,5.11l-3.19,3.63L44.7,64.78z M56.95,65.79c0.84-0.96,1.28-1.86,1.32-2.72
			c0.04-0.86-0.34-1.63-1.13-2.33c-0.79-0.7-1.56-0.93-2.32-0.7c-0.76,0.23-1.56,0.82-2.39,1.77l-1.65,1.88l4.52,3.98L56.95,65.79z"
			/>
		<path class="st0" d="M67.07,48.12l-4.67,3.57l-2.47-3.24l13.21-10.1l2.48,3.24l-4.67,3.57l10.54,13.79l-3.87,2.95L67.07,48.12z"/>
		<path class="st0" d="M79.35,34.84l4.24-2.32l10.27,18.82l-4.24,2.32L79.35,34.84z"/>
		<path class="st0" d="M91.41,28.68l12.68-4.66l1.41,3.83l-8.15,3l1.71,4.66l6.97-2.56l1.41,3.83l-6.97,2.56l2.87,7.81l-4.53,1.67
			L91.41,28.68z"/>
		<path class="st0" d="M111.29,22.35l4.73-0.98l4.33,21l-4.73,0.98L111.29,22.35z"/>
		<path class="st0" d="M130.85,40.77c-1.22-0.41-2.31-1.06-3.27-1.94c-0.95-0.88-1.72-1.99-2.31-3.33
			c-0.59-1.34-0.93-2.91-1.01-4.71c-0.08-1.77,0.12-3.37,0.6-4.78c0.48-1.42,1.16-2.63,2.03-3.63c0.87-1.01,1.91-1.79,3.11-2.35
			c1.2-0.56,2.48-0.87,3.84-0.94c1.38-0.06,2.63,0.16,3.75,0.66c1.12,0.5,2.06,1.11,2.82,1.82l-2.42,3.21
			c-0.57-0.48-1.17-0.86-1.78-1.15c-0.62-0.29-1.31-0.41-2.08-0.38c-0.72,0.03-1.4,0.22-2.03,0.57c-0.63,0.35-1.17,0.83-1.61,1.44
			c-0.44,0.61-0.78,1.35-1.01,2.22c-0.23,0.87-0.32,1.84-0.27,2.91c0.1,2.21,0.66,3.9,1.65,5.07s2.29,1.72,3.86,1.64
			c0.87-0.04,1.65-0.27,2.32-0.69c0.67-0.42,1.26-0.92,1.75-1.51l2.7,2.9c-1.7,2.19-3.95,3.35-6.78,3.48
			C133.37,41.36,132.08,41.19,130.85,40.77z"/>
		<path class="st0" d="M152.28,20.36l5.75,0.88l3.39,22.2l-5.07-0.77l-0.53-5.24l-6.47-0.99l-2.07,4.84l-4.87-0.75L152.28,20.36z
			 M150.9,32.85l4.51,0.69l-0.19-2.02c-0.14-1.11-0.26-2.28-0.36-3.51c-0.1-1.23-0.2-2.43-0.32-3.57l-0.13-0.02
			c-0.43,1.08-0.88,2.2-1.33,3.34c-0.45,1.14-0.91,2.22-1.38,3.23L150.9,32.85z"/>
		<path class="st0" d="M171.23,28.68l-5.58-1.89l1.31-3.86l15.76,5.34l-1.31,3.86l-5.58-1.89l-5.57,16.45l-4.61-1.56L171.23,28.68z"
			/>
		<path class="st0" d="M182.54,51.74c-0.77-1.05-1.27-2.21-1.52-3.48c-0.25-1.27-0.22-2.61,0.08-4.04c0.3-1.43,0.89-2.9,1.78-4.41
			c0.89-1.51,1.89-2.73,3-3.67c1.11-0.94,2.26-1.59,3.47-1.96c1.21-0.37,2.46-0.46,3.74-0.27c1.28,0.18,2.54,0.64,3.79,1.38
			c1.25,0.74,2.25,1.62,3.03,2.66c0.78,1.03,1.3,2.17,1.55,3.42c0.26,1.25,0.24,2.58-0.06,4c-0.29,1.42-0.88,2.87-1.76,4.37
			c-0.89,1.51-1.89,2.74-3,3.69c-1.11,0.95-2.28,1.62-3.5,2.02c-1.23,0.39-2.49,0.51-3.78,0.34c-1.29-0.17-2.56-0.61-3.81-1.35
			C184.31,53.69,183.31,52.79,182.54,51.74z M191.65,50.98c1.38-0.65,2.62-1.91,3.73-3.78c1.09-1.85,1.58-3.51,1.46-4.98
			c-0.12-1.47-0.82-2.59-2.08-3.33c-1.27-0.75-2.57-0.82-3.92-0.22c-1.35,0.6-2.57,1.83-3.67,3.68c-1.11,1.87-1.61,3.56-1.52,5.08
			c0.09,1.52,0.77,2.65,2.04,3.4C188.95,51.58,190.27,51.63,191.65,50.98z"/>
		<path class="st0" d="M221.86,55.63l3.26,3.56L209.3,73.66l-3.26-3.57L221.86,55.63z"/>
		<path class="st0" d="M214.58,79.54c-0.35-1.45-0.4-2.91-0.15-4.39l4.3,0.45c-0.12,1-0.09,2.01,0.08,3.01
			c0.17,1,0.51,1.88,1.01,2.63c0.56,0.84,1.13,1.36,1.72,1.56c0.58,0.2,1.14,0.13,1.67-0.23c0.28-0.18,0.47-0.4,0.59-0.65
			c0.12-0.25,0.18-0.54,0.19-0.87c0-0.33-0.04-0.7-0.11-1.11l-0.25-1.35l-0.57-2.98c-0.12-0.58-0.18-1.18-0.18-1.8
			c0-0.62,0.09-1.23,0.26-1.83c0.17-0.6,0.45-1.17,0.83-1.72c0.39-0.55,0.91-1.04,1.56-1.48c0.73-0.49,1.52-0.79,2.37-0.92
			c0.85-0.12,1.71-0.06,2.57,0.18c0.86,0.24,1.69,0.66,2.48,1.25c0.79,0.59,1.5,1.35,2.12,2.28c0.69,1.04,1.18,2.2,1.45,3.48
			c0.28,1.28,0.28,2.56,0.03,3.83l-3.91-0.35c0.07-0.89,0.03-1.7-0.11-2.45c-0.15-0.75-0.45-1.47-0.93-2.19
			c-0.46-0.69-0.97-1.15-1.53-1.37c-0.56-0.22-1.09-0.16-1.6,0.18c-0.27,0.18-0.46,0.41-0.56,0.67c-0.1,0.26-0.14,0.57-0.14,0.92
			c0.01,0.35,0.06,0.73,0.14,1.15c0.08,0.42,0.17,0.88,0.26,1.37l0.61,2.92c0.29,1.39,0.27,2.65-0.08,3.79
			c-0.34,1.14-1.15,2.13-2.4,2.97c-0.75,0.5-1.55,0.82-2.42,0.97c-0.87,0.14-1.74,0.09-2.63-0.14c-0.88-0.24-1.76-0.68-2.61-1.31
			c-0.86-0.64-1.65-1.48-2.35-2.54C215.48,82.29,214.92,80.99,214.58,79.54z"/>
		<path class="st0" d="M224.99,97.58c0.05-1.3,0.36-2.53,0.95-3.67c0.59-1.15,1.44-2.19,2.55-3.14c1.11-0.94,2.49-1.73,4.12-2.37
			c1.63-0.64,3.17-0.99,4.62-1.05s2.76,0.14,3.94,0.59c1.18,0.46,2.22,1.15,3.11,2.08c0.89,0.93,1.6,2.07,2.13,3.42
			c0.53,1.35,0.78,2.67,0.76,3.96c-0.02,1.29-0.32,2.51-0.88,3.65c-0.57,1.14-1.4,2.18-2.5,3.12c-1.1,0.94-2.46,1.72-4.07,2.35
			c-1.63,0.64-3.18,0.99-4.63,1.06c-1.46,0.07-2.79-0.12-4-0.57c-1.21-0.45-2.27-1.13-3.19-2.05c-0.92-0.93-1.64-2.06-2.16-3.41
			C225.19,100.2,224.95,98.88,224.99,97.58z M232.64,102.58c1.49,0.33,3.24,0.11,5.26-0.69c2-0.78,3.4-1.79,4.21-3.03
			c0.81-1.24,0.95-2.53,0.41-3.9c-0.53-1.37-1.52-2.23-2.95-2.59c-1.43-0.36-3.15-0.14-5.15,0.64c-2.02,0.79-3.46,1.81-4.32,3.07
			c-0.86,1.26-1.02,2.57-0.49,3.94C230.14,101.39,231.16,102.25,232.64,102.58z"/>
	</g>
	<polygon class="st2" points="169.23,96.69 124.43,149.6 104.09,130.44 91.71,143.58 125.92,175.78 183,108.36 	"/>
</g>
</svg>
