<svg width="113" height="106" viewBox="0 0 113 106" fill="none" xmlns="http://www.w3.org/2000/svg">
<path d="M30 4.5L82.5 95M30 95L82.5 4.5M3.5 49.5H108" stroke="#005B7F" stroke-width="2"/>
<circle cx="30" cy="5" r="5" fill="#005B7F"/>
<circle cx="83" cy="5" r="5" fill="#005B7F"/>
<circle cx="108" cy="50" r="5" fill="#005B7F"/>
<circle cx="5" cy="50" r="5" fill="#005B7F"/>
<circle cx="30" cy="95" r="5" fill="#005B7F"/>
<circle cx="83" cy="95" r="5" fill="#005B7F"/>
<path d="M36.4164 37.3273L57.5 25.1547L78.5836 37.3273V61.6726L57.5 73.8453L36.4164 61.6726V37.3273Z" fill="white" stroke="#005B7F" stroke-width="2"/>
<path d="M47.5 51L42.5 47.5V41.5L55.5 33.5L69 40.5M54 59V50L62 45M41.5 58L55.5 66.5L71.5 57V47.5L61 53.5" stroke="#FF8646" stroke-width="2"/>
<circle cx="67.5" cy="39.5" r="3.5" fill="#FF8646"/>
<circle cx="47.5" cy="50.5" r="3.5" fill="#FF8646"/>
<circle cx="61.5" cy="45.5" r="3.5" fill="#FF8646"/>
<circle cx="53.5" cy="58.5" r="3.5" fill="#FF8646"/>
<circle cx="60.5" cy="53.5" r="3.5" fill="#FF8646"/>
<circle cx="42.5" cy="58.5" r="3.5" fill="#FF8646"/>
<circle cx="30" cy="95" r="10" stroke="#FF8646" stroke-width="2"/>
</svg>
