<svg width="109" height="96" viewBox="0 0 109 96" fill="none" xmlns="http://www.w3.org/2000/svg">
<rect x="51.5" y="11" width="5" height="5" fill="#FF8646"/>
<path d="M108.5 6.5H101V79.5H64.5L61.5 87L108.5 88V6.5Z" fill="#005B7F"/>
<path d="M45.5 1V58C45.5 58 50 61 55.5 68C61 75 65.5 79.5 65.5 79.5H101V1H45.5Z" fill="white" stroke="#212121" stroke-width="2"/>
<circle cx="46" cy="76.5" r="18.5" fill="white" stroke="#212121" stroke-width="2"/>
<path d="M61.5 14H93.5" stroke="#005B7F" stroke-width="3"/>
<rect x="51.5" y="21" width="5" height="5" fill="#FF8646"/>
<path d="M61.5 24H93.5" stroke="#005B7F" stroke-width="3"/>
<rect x="51.5" y="31" width="5" height="5" fill="#FF8646"/>
<path d="M61.5 34H93.5" stroke="#005B7F" stroke-width="3"/>
<rect x="51.5" y="41" width="5" height="5" fill="#FF8646"/>
<path d="M61.5 44H93.5" stroke="#005B7F" stroke-width="3"/>
<path d="M0 65H25M7 77H21M13 89.5H24" stroke="#FF8646" stroke-width="3"/>
<path d="M45.5 63V77L50.5 83" stroke="#FF8646" stroke-width="2"/>
</svg>
